<?xml version="1.0" encoding="UTF-8"?>
<!DOCTYPE svg PUBLIC "-//W3C//DTD SVG 1.1//EN" "http://www.w3.org/Graphics/SVG/1.1/DTD/svg11.dtd">
<!-- Creator: CorelDRAW (Evaluation Version) -->
<svg xmlns="http://www.w3.org/2000/svg" xml:space="preserve" width="11.5in" height="5in" version="1.1" style="shape-rendering:geometricPrecision; text-rendering:geometricPrecision; image-rendering:optimizeQuality; fill-rule:evenodd; clip-rule:evenodd"
viewBox="0 0 1150000 500000"
 xmlns:xlink="http://www.w3.org/1999/xlink"
 xmlns:xodm="http://www.corel.com/coreldraw/odm/2003">
 <defs>
  <style type="text/css">
   <![CDATA[
    .str12 {stroke:white;stroke-width:1357;stroke-miterlimit:2.61313;stroke-opacity:0.200000}
    .str8 {stroke:white;stroke-width:7173;stroke-miterlimit:2.61313}
    .str9 {stroke:white;stroke-width:7173;stroke-miterlimit:2.61313}
    .str10 {stroke:white;stroke-width:7173;stroke-miterlimit:2.61313}
    .str11 {stroke:white;stroke-width:7173;stroke-miterlimit:2.61313}
    .str7 {stroke:white;stroke-width:7173;stroke-miterlimit:2.61313}
    .str1 {stroke:white;stroke-width:9607;stroke-miterlimit:2.61313}
    .str3 {stroke:#E6E7E8;stroke-width:14345;stroke-miterlimit:2.61313}
    .str4 {stroke:#E6E7E8;stroke-width:14345;stroke-miterlimit:2.61313}
    .str5 {stroke:#E6E7E8;stroke-width:14345;stroke-miterlimit:2.61313}
    .str6 {stroke:#E6E7E8;stroke-width:14345;stroke-miterlimit:2.61313}
    .str2 {stroke:#E6E7E8;stroke-width:14345;stroke-miterlimit:2.61313}
    .str0 {stroke:#E6E7E8;stroke-width:19215;stroke-miterlimit:2.61313}
    .fil2 {fill:none}
    .fil0 {fill:none;fill-rule:nonzero}
    .fil8 {fill:none;fill-rule:nonzero}
    .fil6 {fill:#F5842A}
    .fil4 {fill:#ED282E}
    .fil7 {fill:#2BB55B}
    .fil3 {fill:#00AFEF}
    .fil5 {fill:#363894}
    .fil10 {fill:#2D2A2B;fill-rule:nonzero}
    .fil1 {fill:#322D74;fill-rule:nonzero}
    .fil9 {fill:#244C9F;fill-rule:nonzero;fill-opacity:0.200000}
   ]]>
  </style>
 </defs>
 <g id="Layer_x0020_1">
  <metadata id="CorelCorpID_0Corel-Layer"/>
  <g id="_352957736">
   <g>
    <path class="fil0 str0" d="M20301 392894l37918 0 0 -60477 41998 0c39838,0 65037,-21359 65037,-57117 0,-35998 -24479,-57357 -63597,-57357l-81356 0 0 174952zm79676 -142553c16799,0 26638,9119 26638,25439 0,17039 -11039,25199 -26638,25199l-41758 0 0 -50638 41758 0zm148313 144953c32638,0 57117,-16320 62877,-40798l-32158 -8159c-2641,12959 -13920,20398 -30239,20398 -18479,0 -30239,-9599 -32879,-32398l95995 0c4560,-52557 -21839,-82076 -64557,-82076 -41998,0 -68876,28319 -68876,71996 0,45118 29279,71037 69837,71037zm-1680 -114955c17039,0 27359,10800 27599,29519l-58077 0c3120,-19679 13920,-29519 30478,-29519zm126954 114955c20399,0 36958,-8400 45117,-22799l241 2640c2159,12959 12479,19439 27839,19439 5760,0 13439,-720 17999,-3120l0 -25919 -1440 0c-960,240 -2160,480 -4080,480 -4320,0 -8159,-1680 -8159,-9839l0 -59517c0,-27599 -17999,-44398 -58077,-44398 -36719,0 -60477,16799 -60237,45357l34078 3840c0,-14639 9120,-21600 25439,-21600 14639,0 21359,5280 21359,14880 0,7680 -3360,11999 -13679,13919l-29999 5040c-25439,4319 -42238,17999 -42238,42237 0,23759 17519,39358 45838,39358zm11519 -26879c-11999,0 -19679,-5760 -19679,-15839 0,-7199 4080,-13919 17039,-16319l17999 -3360c5999,-1200 10799,-2400 14159,-4080l0 18719c-2640,13199 -13679,20879 -29519,20879zm97436 24479l37437 0 0 -81116c2640,-15119 13680,-23999 30479,-23999 4560,0 8639,480 11039,1439l1440 0 0 -34557c-2880,-960 -7199,-1680 -11759,-1680 -14879,0 -25198,7680 -32878,24239l-1680 -22559 -34078 0 0 138233zm149992 2400c40078,0 60957,-17519 60957,-44158 0,-28798 -20879,-36957 -44398,-41998 -23279,-4800 -35519,-7199 -35519,-18479 0,-7920 6959,-13680 19439,-13680 14399,0 22798,7200 23039,20879l34798 -4800c-2159,-24479 -21599,-40798 -56877,-40798 -34558,0 -57357,16559 -57357,43197 0,23999 17280,33598 42718,39598 21599,4800 35998,6000 35998,19439 0,10320 -8159,15599 -21358,15599 -16559,0 -25919,-9599 -25679,-24478l-35519 4559c2400,27839 22080,45118 59757,45118zm146393 0c41758,0 68876,-28559 68876,-71517 0,-42957 -27119,-71516 -68876,-71516 -41998,0 -69357,28558 -69357,71756 0,42717 27119,71276 69357,71276zm-241 -30239c-20159,0 -32158,-14880 -32158,-41278 0,-26158 12000,-41277 32399,-41277 19919,0 31918,14879 31918,41277 0,26159 -11999,41278 -32159,41278zm91676 27839l37438 0 0 -81596c960,-16320 12480,-26399 27119,-26399 14399,0 22559,7440 22559,20879l0 87116 37198 0 0 -93115c0,-30958 -18239,-47517 -46557,-47517 -18479,0 -31439,6480 -41998,21119l-1440 -18719 -34318 0 0 138233z"/>
    <path id="_1" class="fil1" d="M20301 392894l37918 0 0 -60477 41998 0c39838,0 65037,-21359 65037,-57117 0,-35998 -24479,-57357 -63597,-57357l-81356 0 0 174952zm79676 -142553c16799,0 26638,9119 26638,25439 0,17039 -11039,25199 -26638,25199l-41758 0 0 -50638 41758 0zm148313 144953c32638,0 57117,-16320 62877,-40798l-32158 -8159c-2641,12959 -13920,20398 -30239,20398 -18479,0 -30239,-9599 -32879,-32398l95995 0c4560,-52557 -21839,-82076 -64557,-82076 -41998,0 -68876,28319 -68876,71996 0,45118 29279,71037 69837,71037zm-1680 -114955c17039,0 27359,10800 27599,29519l-58077 0c3120,-19679 13920,-29519 30478,-29519zm126954 114955c20399,0 36958,-8400 45117,-22799l241 2640c2159,12959 12479,19439 27839,19439 5760,0 13439,-720 17999,-3120l0 -25919 -1440 0c-960,240 -2160,480 -4080,480 -4320,0 -8159,-1680 -8159,-9839l0 -59517c0,-27599 -17999,-44398 -58077,-44398 -36719,0 -60477,16799 -60237,45357l34078 3840c0,-14639 9120,-21600 25439,-21600 14639,0 21359,5280 21359,14880 0,7680 -3360,11999 -13679,13919l-29999 5040c-25439,4319 -42238,17999 -42238,42237 0,23759 17519,39358 45838,39358zm11519 -26879c-11999,0 -19679,-5760 -19679,-15839 0,-7199 4080,-13919 17039,-16319l17999 -3360c5999,-1200 10799,-2400 14159,-4080l0 18719c-2640,13199 -13679,20879 -29519,20879zm97436 24479l37437 0 0 -81116c2640,-15119 13680,-23999 30479,-23999 4560,0 8639,480 11039,1439l1440 0 0 -34557c-2880,-960 -7199,-1680 -11759,-1680 -14879,0 -25198,7680 -32878,24239l-1680 -22559 -34078 0 0 138233zm149992 2400c40078,0 60957,-17519 60957,-44158 0,-28798 -20879,-36957 -44398,-41998 -23279,-4800 -35519,-7199 -35519,-18479 0,-7920 6959,-13680 19439,-13680 14399,0 22798,7200 23039,20879l34798 -4800c-2159,-24479 -21599,-40798 -56877,-40798 -34558,0 -57357,16559 -57357,43197 0,23999 17280,33598 42718,39598 21599,4800 35998,6000 35998,19439 0,10320 -8159,15599 -21358,15599 -16559,0 -25919,-9599 -25679,-24478l-35519 4559c2400,27839 22080,45118 59757,45118zm146393 0c41758,0 68876,-28559 68876,-71517 0,-42957 -27119,-71516 -68876,-71516 -41998,0 -69357,28558 -69357,71756 0,42717 27119,71276 69357,71276zm-241 -30239c-20159,0 -32158,-14880 -32158,-41278 0,-26158 12000,-41277 32399,-41277 19919,0 31918,14879 31918,41277 0,26159 -11999,41278 -32159,41278zm91676 27839l37438 0 0 -81596c960,-16320 12480,-26399 27119,-26399 14399,0 22559,7440 22559,20879l0 87116 37198 0 0 -93115c0,-30958 -18239,-47517 -46557,-47517 -18479,0 -31439,6480 -41998,21119l-1440 -18719 -34318 0 0 138233z"/>
   </g>
   <g>
    <path class="fil0 str1" d="M20301 392894l37918 0 0 -60477 41998 0c39838,0 65037,-21359 65037,-57117 0,-35998 -24479,-57357 -63597,-57357l-81356 0 0 174952zm79676 -142553c16799,0 26638,9119 26638,25439 0,17039 -11039,25199 -26638,25199l-41758 0 0 -50638 41758 0zm148313 144953c32638,0 57117,-16320 62877,-40798l-32158 -8159c-2641,12959 -13920,20398 -30239,20398 -18479,0 -30239,-9599 -32879,-32398l95995 0c4560,-52557 -21839,-82076 -64557,-82076 -41998,0 -68876,28319 -68876,71996 0,45118 29279,71037 69837,71037zm-1680 -114955c17039,0 27359,10800 27599,29519l-58077 0c3120,-19679 13920,-29519 30478,-29519zm126954 114955c20399,0 36958,-8400 45117,-22799l241 2640c2159,12959 12479,19439 27839,19439 5760,0 13439,-720 17999,-3120l0 -25919 -1440 0c-960,240 -2160,480 -4080,480 -4320,0 -8159,-1680 -8159,-9839l0 -59517c0,-27599 -17999,-44398 -58077,-44398 -36719,0 -60477,16799 -60237,45357l34078 3840c0,-14639 9120,-21600 25439,-21600 14639,0 21359,5280 21359,14880 0,7680 -3360,11999 -13679,13919l-29999 5040c-25439,4319 -42238,17999 -42238,42237 0,23759 17519,39358 45838,39358zm11519 -26879c-11999,0 -19679,-5760 -19679,-15839 0,-7199 4080,-13919 17039,-16319l17999 -3360c5999,-1200 10799,-2400 14159,-4080l0 18719c-2640,13199 -13679,20879 -29519,20879zm97436 24479l37437 0 0 -81116c2640,-15119 13680,-23999 30479,-23999 4560,0 8639,480 11039,1439l1440 0 0 -34557c-2880,-960 -7199,-1680 -11759,-1680 -14879,0 -25198,7680 -32878,24239l-1680 -22559 -34078 0 0 138233zm149992 2400c40078,0 60957,-17519 60957,-44158 0,-28798 -20879,-36957 -44398,-41998 -23279,-4800 -35519,-7199 -35519,-18479 0,-7920 6959,-13680 19439,-13680 14399,0 22798,7200 23039,20879l34798 -4800c-2159,-24479 -21599,-40798 -56877,-40798 -34558,0 -57357,16559 -57357,43197 0,23999 17280,33598 42718,39598 21599,4800 35998,6000 35998,19439 0,10320 -8159,15599 -21358,15599 -16559,0 -25919,-9599 -25679,-24478l-35519 4559c2400,27839 22080,45118 59757,45118zm146393 0c41758,0 68876,-28559 68876,-71517 0,-42957 -27119,-71516 -68876,-71516 -41998,0 -69357,28558 -69357,71756 0,42717 27119,71276 69357,71276zm-241 -30239c-20159,0 -32158,-14880 -32158,-41278 0,-26158 12000,-41277 32399,-41277 19919,0 31918,14879 31918,41277 0,26159 -11999,41278 -32159,41278zm91676 27839l37438 0 0 -81596c960,-16320 12480,-26399 27119,-26399 14399,0 22559,7440 22559,20879l0 87116 37198 0 0 -93115c0,-30958 -18239,-47517 -46557,-47517 -18479,0 -31439,6480 -41998,21119l-1440 -18719 -34318 0 0 138233z"/>
    <path id="_1_36" class="fil1" d="M20301 392894l37918 0 0 -60477 41998 0c39838,0 65037,-21359 65037,-57117 0,-35998 -24479,-57357 -63597,-57357l-81356 0 0 174952zm79676 -142553c16799,0 26638,9119 26638,25439 0,17039 -11039,25199 -26638,25199l-41758 0 0 -50638 41758 0zm148313 144953c32638,0 57117,-16320 62877,-40798l-32158 -8159c-2641,12959 -13920,20398 -30239,20398 -18479,0 -30239,-9599 -32879,-32398l95995 0c4560,-52557 -21839,-82076 -64557,-82076 -41998,0 -68876,28319 -68876,71996 0,45118 29279,71037 69837,71037zm-1680 -114955c17039,0 27359,10800 27599,29519l-58077 0c3120,-19679 13920,-29519 30478,-29519zm126954 114955c20399,0 36958,-8400 45117,-22799l241 2640c2159,12959 12479,19439 27839,19439 5760,0 13439,-720 17999,-3120l0 -25919 -1440 0c-960,240 -2160,480 -4080,480 -4320,0 -8159,-1680 -8159,-9839l0 -59517c0,-27599 -17999,-44398 -58077,-44398 -36719,0 -60477,16799 -60237,45357l34078 3840c0,-14639 9120,-21600 25439,-21600 14639,0 21359,5280 21359,14880 0,7680 -3360,11999 -13679,13919l-29999 5040c-25439,4319 -42238,17999 -42238,42237 0,23759 17519,39358 45838,39358zm11519 -26879c-11999,0 -19679,-5760 -19679,-15839 0,-7199 4080,-13919 17039,-16319l17999 -3360c5999,-1200 10799,-2400 14159,-4080l0 18719c-2640,13199 -13679,20879 -29519,20879zm97436 24479l37437 0 0 -81116c2640,-15119 13680,-23999 30479,-23999 4560,0 8639,480 11039,1439l1440 0 0 -34557c-2880,-960 -7199,-1680 -11759,-1680 -14879,0 -25198,7680 -32878,24239l-1680 -22559 -34078 0 0 138233zm149992 2400c40078,0 60957,-17519 60957,-44158 0,-28798 -20879,-36957 -44398,-41998 -23279,-4800 -35519,-7199 -35519,-18479 0,-7920 6959,-13680 19439,-13680 14399,0 22798,7200 23039,20879l34798 -4800c-2159,-24479 -21599,-40798 -56877,-40798 -34558,0 -57357,16559 -57357,43197 0,23999 17280,33598 42718,39598 21599,4800 35998,6000 35998,19439 0,10320 -8159,15599 -21358,15599 -16559,0 -25919,-9599 -25679,-24478l-35519 4559c2400,27839 22080,45118 59757,45118zm146393 0c41758,0 68876,-28559 68876,-71517 0,-42957 -27119,-71516 -68876,-71516 -41998,0 -69357,28558 -69357,71756 0,42717 27119,71276 69357,71276zm-241 -30239c-20159,0 -32158,-14880 -32158,-41278 0,-26158 12000,-41277 32399,-41277 19919,0 31918,14879 31918,41277 0,26159 -11999,41278 -32159,41278zm91676 27839l37438 0 0 -81596c960,-16320 12480,-26399 27119,-26399 14399,0 22559,7440 22559,20879l0 87116 37198 0 0 -93115c0,-30958 -18239,-47517 -46557,-47517 -18479,0 -31439,6480 -41998,21119l-1440 -18719 -34318 0 0 138233z"/>
   </g>
  </g>
  <g id="_239273896">
   <g>
    <g>
     <g>
      <path class="fil2 str2" d="M859031 212988c0,0 13546,-36541 47948,-62565 34402,-26024 54365,-36184 56683,-18003 2317,18181 7130,66129 10873,77002 3743,10874 10873,8735 13280,7309 2406,-1426 4367,-5704 1693,-18359 -2674,-12656 -7843,-43492 -9180,-52404 -1337,-8912 -3120,-21478 -6150,-28519 -3030,-7041 -19696,-11675 -37789,-980 -28022,16564 -74451,53043 -85203,84578 -1337,3921 445,14171 7845,11941z"/>
      <path id="_1_37" class="fil3" d="M859031 212988c0,0 13546,-36541 47948,-62565 34402,-26024 54365,-36184 56683,-18003 2317,18181 7130,66129 10873,77002 3743,10874 10873,8735 13280,7309 2406,-1426 4367,-5704 1693,-18359 -2674,-12656 -7843,-43492 -9180,-52404 -1337,-8912 -3120,-21478 -6150,-28519 -3030,-7041 -19696,-11675 -37789,-980 -28022,16564 -74451,53043 -85203,84578 -1337,3921 445,14171 7845,11941z"/>
     </g>
     <g>
      <path class="fil2 str3" d="M846772 186856c0,0 16399,-37789 59713,-69694 43314,-31906 55435,-39749 57930,-42779 2495,-3030 4278,-9804 -6774,-9804 -11051,0 -40731,1960 -58110,5881 -17379,3921 -22905,11854 -9625,9002 13280,-2852 32709,-5971 42334,-6684 9625,-713 12923,-89 4635,2406 -8289,2495 -50266,19608 -68893,32709 -18627,13101 -19964,14794 -19607,17913 357,3119 1961,3298 4011,1693 2050,-1604 32530,-23707 56861,-34669 24331,-10962 39927,-16487 33956,-11853 -4970,3857 -37533,23580 -59364,44165 -10932,10309 -36787,42289 -41613,53871 -1782,4278 -713,13190 4547,7843z"/>
      <path id="_1_38" class="fil4" d="M846772 186856c0,0 16399,-37789 59713,-69694 43314,-31906 55435,-39749 57930,-42779 2495,-3030 4278,-9804 -6774,-9804 -11051,0 -40731,1960 -58110,5881 -17379,3921 -22905,11854 -9625,9002 13280,-2852 32709,-5971 42334,-6684 9625,-713 12923,-89 4635,2406 -8289,2495 -50266,19608 -68893,32709 -18627,13101 -19964,14794 -19607,17913 357,3119 1961,3298 4011,1693 2050,-1604 32530,-23707 56861,-34669 24331,-10962 39927,-16487 33956,-11853 -4970,3857 -37533,23580 -59364,44165 -10932,10309 -36787,42289 -41613,53871 -1782,4278 -713,13190 4547,7843z"/>
     </g>
     <g>
      <path class="fil2 str4" d="M910141 57271c29925,-12866 80120,-372 95893,-19785 6952,-8556 12299,-4100 9447,356 -2852,4456 -6417,15507 -30658,15864 -24242,357 -48126,1248 -59891,3743 -6167,1308 -11158,2763 -14255,3210 -4813,694 -4475,-1696 -536,-3389z"/>
      <path id="_1_39" class="fil5" d="M910141 57271c29925,-12866 80120,-372 95893,-19785 6952,-8556 12299,-4100 9447,356 -2852,4456 -6417,15507 -30658,15864 -24242,357 -48126,1248 -59891,3743 -6167,1308 -11158,2763 -14255,3210 -4813,694 -4475,-1696 -536,-3389z"/>
     </g>
     <g>
      <path class="fil2 str5" d="M1023818 24083c5689,-886 18245,-1737 23791,1104 7308,3743 5882,8734 535,13547 -5347,4812 -3921,8021 4635,5169 8556,-2852 31193,-7665 40284,-7486 9090,178 8556,4278 2317,5347 -6239,1070 -20498,2852 -30837,4456 -10338,1604 -15329,4456 -3921,5704 11408,1248 50800,7843 59178,11765 8378,3921 7664,9447 356,7130 -7308,-2317 -27272,-8913 -52583,-11586 -25311,-2674 -27272,-2495 -32085,-5882 -4813,-3387 -4634,-6061 713,-11765 5348,-5704 11408,-13546 535,-13190 -10873,356 -13649,1571 -15864,0 -2349,-1665 882,-3991 2946,-4313z"/>
      <path id="_1_40" class="fil6" d="M1023818 24083c5689,-886 18245,-1737 23791,1104 7308,3743 5882,8734 535,13547 -5347,4812 -3921,8021 4635,5169 8556,-2852 31193,-7665 40284,-7486 9090,178 8556,4278 2317,5347 -6239,1070 -20498,2852 -30837,4456 -10338,1604 -15329,4456 -3921,5704 11408,1248 50800,7843 59178,11765 8378,3921 7664,9447 356,7130 -7308,-2317 -27272,-8913 -52583,-11586 -25311,-2674 -27272,-2495 -32085,-5882 -4813,-3387 -4634,-6061 713,-11765 5348,-5704 11408,-13546 535,-13190 -10873,356 -13649,1571 -15864,0 -2349,-1665 882,-3991 2946,-4313z"/>
     </g>
     <g>
      <path class="fil2 str6" d="M1125723 88518c4835,1019 8565,-4970 -755,-7718 -15250,-4495 -56683,-13903 -73259,-14081 -16577,-178 -37254,891 -41175,23707 -2828,16459 -8496,96769 -3261,111080 2405,6573 11013,7674 13293,-3084 527,-2486 678,-5559 484,-9247 -1450,-27592 1426,-88232 2496,-98392 1069,-10160 6594,-9625 14259,-4456 7665,5169 35115,30302 47770,42601 5265,5117 8433,9216 10837,12220 3374,4215 5337,6870 9305,5961 20237,-4634 -55704,-62978 -59891,-65594 -27133,-16958 69843,4886 79897,7004z"/>
      <path id="_1_41" class="fil7" d="M1125723 88518c4835,1019 8565,-4970 -755,-7718 -15250,-4495 -56683,-13903 -73259,-14081 -16577,-178 -37254,891 -41175,23707 -2828,16459 -8496,96769 -3261,111080 2405,6573 11013,7674 13293,-3084 527,-2486 678,-5559 484,-9247 -1450,-27592 1426,-88232 2496,-98392 1069,-10160 6594,-9625 14259,-4456 7665,5169 35115,30302 47770,42601 5265,5117 8433,9216 10837,12220 3374,4215 5337,6870 9305,5961 20237,-4634 -55704,-62978 -59891,-65594 -27133,-16958 69843,4886 79897,7004z"/>
     </g>
    </g>
    <g>
     <g>
      <path class="fil2 str7" d="M859031 212988c0,0 13546,-36541 47948,-62565 34402,-26024 54365,-36184 56683,-18003 2317,18181 7130,66129 10873,77002 3743,10874 10873,8735 13280,7309 2406,-1426 4367,-5704 1693,-18359 -2674,-12656 -7843,-43492 -9180,-52404 -1337,-8912 -3120,-21478 -6150,-28519 -3030,-7041 -19696,-11675 -37789,-980 -28022,16564 -74451,53043 -85203,84578 -1337,3921 445,14171 7845,11941z"/>
      <path id="_1_42" class="fil3" d="M859031 212988c0,0 13546,-36541 47948,-62565 34402,-26024 54365,-36184 56683,-18003 2317,18181 7130,66129 10873,77002 3743,10874 10873,8735 13280,7309 2406,-1426 4367,-5704 1693,-18359 -2674,-12656 -7843,-43492 -9180,-52404 -1337,-8912 -3120,-21478 -6150,-28519 -3030,-7041 -19696,-11675 -37789,-980 -28022,16564 -74451,53043 -85203,84578 -1337,3921 445,14171 7845,11941z"/>
     </g>
     <g>
      <path class="fil2 str8" d="M846772 186856c0,0 16399,-37789 59713,-69694 43314,-31906 55435,-39749 57930,-42779 2495,-3030 4278,-9804 -6774,-9804 -11051,0 -40731,1960 -58110,5881 -17379,3921 -22905,11854 -9625,9002 13280,-2852 32709,-5971 42334,-6684 9625,-713 12923,-89 4635,2406 -8289,2495 -50266,19608 -68893,32709 -18627,13101 -19964,14794 -19607,17913 357,3119 1961,3298 4011,1693 2050,-1604 32530,-23707 56861,-34669 24331,-10962 39927,-16487 33956,-11853 -4970,3857 -37533,23580 -59364,44165 -10932,10309 -36787,42289 -41613,53871 -1782,4278 -713,13190 4547,7843z"/>
      <path id="_1_43" class="fil4" d="M846772 186856c0,0 16399,-37789 59713,-69694 43314,-31906 55435,-39749 57930,-42779 2495,-3030 4278,-9804 -6774,-9804 -11051,0 -40731,1960 -58110,5881 -17379,3921 -22905,11854 -9625,9002 13280,-2852 32709,-5971 42334,-6684 9625,-713 12923,-89 4635,2406 -8289,2495 -50266,19608 -68893,32709 -18627,13101 -19964,14794 -19607,17913 357,3119 1961,3298 4011,1693 2050,-1604 32530,-23707 56861,-34669 24331,-10962 39927,-16487 33956,-11853 -4970,3857 -37533,23580 -59364,44165 -10932,10309 -36787,42289 -41613,53871 -1782,4278 -713,13190 4547,7843z"/>
     </g>
     <g>
      <path class="fil2 str9" d="M910141 57271c29925,-12866 80120,-372 95893,-19785 6952,-8556 12299,-4100 9447,356 -2852,4456 -6417,15507 -30658,15864 -24242,357 -48126,1248 -59891,3743 -6167,1308 -11158,2763 -14255,3210 -4813,694 -4475,-1696 -536,-3389z"/>
      <path id="_1_44" class="fil5" d="M910141 57271c29925,-12866 80120,-372 95893,-19785 6952,-8556 12299,-4100 9447,356 -2852,4456 -6417,15507 -30658,15864 -24242,357 -48126,1248 -59891,3743 -6167,1308 -11158,2763 -14255,3210 -4813,694 -4475,-1696 -536,-3389z"/>
     </g>
     <g>
      <path class="fil2 str10" d="M1023818 24083c5689,-886 18245,-1737 23791,1104 7308,3743 5882,8734 535,13547 -5347,4812 -3921,8021 4635,5169 8556,-2852 31193,-7665 40284,-7486 9090,178 8556,4278 2317,5347 -6239,1070 -20498,2852 -30837,4456 -10338,1604 -15329,4456 -3921,5704 11408,1248 50800,7843 59178,11765 8378,3921 7664,9447 356,7130 -7308,-2317 -27272,-8913 -52583,-11586 -25311,-2674 -27272,-2495 -32085,-5882 -4813,-3387 -4634,-6061 713,-11765 5348,-5704 11408,-13546 535,-13190 -10873,356 -13649,1571 -15864,0 -2349,-1665 882,-3991 2946,-4313z"/>
      <path id="_1_45" class="fil6" d="M1023818 24083c5689,-886 18245,-1737 23791,1104 7308,3743 5882,8734 535,13547 -5347,4812 -3921,8021 4635,5169 8556,-2852 31193,-7665 40284,-7486 9090,178 8556,4278 2317,5347 -6239,1070 -20498,2852 -30837,4456 -10338,1604 -15329,4456 -3921,5704 11408,1248 50800,7843 59178,11765 8378,3921 7664,9447 356,7130 -7308,-2317 -27272,-8913 -52583,-11586 -25311,-2674 -27272,-2495 -32085,-5882 -4813,-3387 -4634,-6061 713,-11765 5348,-5704 11408,-13546 535,-13190 -10873,356 -13649,1571 -15864,0 -2349,-1665 882,-3991 2946,-4313z"/>
     </g>
     <g>
      <path class="fil2 str11" d="M1125723 88518c4835,1019 8565,-4970 -755,-7718 -15250,-4495 -56683,-13903 -73259,-14081 -16577,-178 -37254,891 -41175,23707 -2828,16459 -8496,96769 -3261,111080 2405,6573 11013,7674 13293,-3084 527,-2486 678,-5559 484,-9247 -1450,-27592 1426,-88232 2496,-98392 1069,-10160 6594,-9625 14259,-4456 7665,5169 35115,30302 47770,42601 5265,5117 8433,9216 10837,12220 3374,4215 5337,6870 9305,5961 20237,-4634 -55704,-62978 -59891,-65594 -27133,-16958 69843,4886 79897,7004z"/>
      <path id="_1_46" class="fil7" d="M1125723 88518c4835,1019 8565,-4970 -755,-7718 -15250,-4495 -56683,-13903 -73259,-14081 -16577,-178 -37254,891 -41175,23707 -2828,16459 -8496,96769 -3261,111080 2405,6573 11013,7674 13293,-3084 527,-2486 678,-5559 484,-9247 -1450,-27592 1426,-88232 2496,-98392 1069,-10160 6594,-9625 14259,-4456 7665,5169 35115,30302 47770,42601 5265,5117 8433,9216 10837,12220 3374,4215 5337,6870 9305,5961 20237,-4634 -55704,-62978 -59891,-65594 -27133,-16958 69843,4886 79897,7004z"/>
     </g>
    </g>
   </g>
   <g>
    <path class="fil8 str12" d="M973967 91660l4946 2061 3287 -7887 5478 2283c5196,2166 9643,750 11587,-3913 1957,-4695 -75,-8812 -5176,-10938l-10611 -4423 -9510 22818zm18141 -14261c2192,914 2979,2638 2092,4766 -926,2222 -2810,2687 -4844,1838l-5446 -2270 2753 -6604 5446 2270z"/>
    <path id="_1_47" class="fil9" d="M973967 91660l4946 2061 3287 -7887 5478 2283c5196,2166 9643,750 11587,-3913 1957,-4695 -75,-8812 -5176,-10938l-10611 -4423 -9510 22818zm18141 -14261c2192,914 2979,2638 2092,4766 -926,2222 -2810,2687 -4844,1838l-5446 -2270 2753 -6604 5446 2270z"/>
   </g>
  </g>
  <path class="fil10" d="M326161 475309l0 -40228 15189 0c2669,0 4710,131 6124,383 1976,328 3633,955 4972,1873 1339,928 2417,2220 3231,3877 815,1658 1217,3484 1217,5478 0,3409 -1086,6302 -3268,8662 -2172,2369 -6115,3548 -11807,3548l-10319 0 0 16406 -5338 0zm5338 -21126l10394 0c3446,0 5880,-637 7332,-1919 1442,-1283 2163,-3081 2163,-5413 0,-1676 -421,-3119 -1273,-4317 -852,-1199 -1976,-1995 -3362,-2379 -899,-234 -2557,-356 -4963,-356l-10291 0 0 14383zm44410 21126l0 -40228 5338 0 0 16574 20789 0 0 -16574 5337 0 0 40228 -5337 0 0 -18934 -20789 0 0 18934 -5338 0zm47987 0l15433 -40228 5852 0 16377 40228 -6059 0 -4654 -12192 -16940 0 -4363 12192 -5647 0zm11574 -16519l13709 0 -4195 -11153c-1264,-3389 -2220,-6189 -2884,-8399 -553,2622 -1293,5197 -2220,7744l-4411 11808zm42472 16519l0 -40228 17830 0c3586,0 6311,365 8175,1086 1863,721 3352,1994 4466,3820 1115,1826 1667,3848 1667,6058 0,2856 -926,5263 -2772,7220 -1844,1957 -4691,3194 -8549,3728 1414,674 2482,1348 3212,2004 1554,1423 3024,3211 4401,5356l6957 10956 -6648 0 -5319 -8372c-1545,-2425 -2828,-4270 -3830,-5553 -1011,-1283 -1910,-2173 -2706,-2687 -786,-506 -1601,-862 -2425,-1068 -599,-122 -1582,-187 -2959,-187l-6162 0 0 17867 -5337 0zm5337 -22474l11424 0c2435,0 4326,-254 5693,-759 1367,-496 2407,-1302 3109,-2416 712,-1105 1067,-2303 1067,-3605 0,-1901 -683,-3474 -2060,-4700 -1376,-1227 -3548,-1835 -6517,-1835l-12717 0 0 13316zm47060 22474l0 -40228 7978 0 9514 28476c880,2650 1517,4635 1920,5955 459,-1460 1180,-3615 2154,-6452l9683 -27980 7126 0 0 40228 -5113 0 0 -33654 -11742 33654 -4794 0 -11612 -34272 0 34272 -5113 0zm54552 0l15433 -40228 5852 0 16378 40228 -6059 0 -4653 -12192 -16940 0 -4364 12192 -5647 0zm11574 -16519l13709 0 -4195 -11153c-1264,-3389 -2219,-6189 -2884,-8399 -553,2622 -1292,5197 -2220,7744l-4410 11808zm71013 2407l5338 1349c-1115,4373 -3118,7697 -6012,9991 -2893,2294 -6433,3446 -10619,3446 -4326,0 -7847,-880 -10563,-2650 -2716,-1761 -4776,-4317 -6190,-7660 -1414,-3353 -2126,-6939 -2126,-10778 0,-4186 796,-7838 2397,-10956 1601,-3118 3876,-5487 6826,-7107 2950,-1620 6199,-2426 9739,-2426 4027,0 7407,1020 10141,3072 2744,2051 4654,4925 5730,8634l-5225 1235c-927,-2921 -2285,-5056 -4055,-6386 -1770,-1339 -3999,-2004 -6686,-2004 -3081,0 -5665,739 -7735,2219 -2069,1480 -3530,3474 -4363,5965 -843,2501 -1264,5076 -1264,7726 0,3419 496,6405 1489,8952 993,2556 2538,4457 4635,5722 2098,1263 4364,1891 6807,1891 2978,0 5487,-861 7548,-2575 2060,-1723 3456,-4270 4186,-7660zm24080 14112l0 -40228 29048 0 0 4719 -23710 0 0 12361 22193 0 0 4719 -22193 0 0 13709 24665 0 0 4720 -30003 0zm75762 -40228l5337 0 0 23232c0,4045 -459,7257 -1367,9635 -918,2369 -2565,4307 -4944,5796 -2388,1489 -5506,2238 -9383,2238 -3755,0 -6835,-646 -9224,-1948 -2397,-1301 -4102,-3174 -5122,-5637 -1020,-2463 -1536,-5824 -1536,-10085l0 -23232 5338 0 0 23222c0,3493 327,6077 974,7726 646,1657 1751,2941 3334,3830 1573,900 3502,1349 5778,1349 3895,0 6676,-890 8334,-2659 1657,-1779 2482,-5188 2482,-10244l0 -23222zm36496 40228l0 -35509 -13259 0 0 -4719 31857 0 0 4719 -13260 0 0 35509 -5338 0zm37041 0l0 -40228 5337 0 0 40228 -5337 0zm55413 -14112l5338 1349c-1115,4373 -3118,7697 -6012,9991 -2893,2294 -6433,3446 -10619,3446 -4326,0 -7847,-880 -10562,-2650 -2716,-1761 -4776,-4317 -6190,-7660 -1414,-3353 -2126,-6939 -2126,-10778 0,-4186 796,-7838 2397,-10956 1601,-3118 3876,-5487 6826,-7107 2950,-1620 6199,-2426 9739,-2426 4026,0 7407,1020 10141,3072 2744,2051 4654,4925 5730,8634l-5224 1235c-928,-2921 -2285,-5056 -4055,-6386 -1770,-1339 -3999,-2004 -6686,-2004 -3081,0 -5665,739 -7735,2219 -2069,1480 -3530,3474 -4363,5965 -843,2501 -1264,5076 -1264,7726 0,3419 496,6405 1489,8952 993,2556 2538,4457 4635,5722 2098,1263 4364,1891 6807,1891 2978,0 5488,-861 7548,-2575 2060,-1723 3456,-4270 4186,-7660zm19557 14112l15433 -40228 5852 0 16378 40228 -6059 0 -4653 -12192 -16940 0 -4364 12192 -5647 0zm11574 -16519l13709 0 -4195 -11153c-1264,-3389 -2219,-6189 -2884,-8399 -553,2622 -1292,5197 -2220,7744l-4410 11808zm42135 16519l0 -40228 5338 0 0 35508 19777 0 0 4720 -25115 0z"/>
  <path class="fil10" d="M733639 214573l0 -36431 -13605 0 0 -4842 32685 0 0 4842 -13604 0 0 36431 -5476 0zm24604 0l0 -41273 8185 0 9761 29216c903,2719 1556,4756 1969,6111 471,-1499 1211,-3709 2210,-6619l9934 -28707 7311 0 0 41273 -5246 0 0 -34529 -12048 34529 -4919 0 -11913 -35163 0 35163 -5246 0z"/>
 </g>
</svg>
