<svg xmlns="http://www.w3.org/2000/svg" xmlns:ooo="http://xml.openoffice.org/svg/export" xmlns:xlink="http://www.w3.org/1999/xlink" xmlns:presentation="http://sun.com/xmlns/staroffice/presentation" xmlns:smil="http://www.w3.org/2001/SMIL20/" xmlns:anim="urn:oasis:names:tc:opendocument:xmlns:animation:1.0" xmlns:svg="urn:oasis:names:tc:opendocument:xmlns:svg-compatible:1.0" version="1.2" preserveAspectRatio="xMidYMid" fill-rule="evenodd" stroke-width="28.222" stroke-linejoin="round" xml:space="preserve" viewBox="9484 7364.61 16557.85 6756.39">
 <defs class="ClipPathGroup">
  <clipPath id="presentation_clip_path" clipPathUnits="userSpaceOnUse">
   <rect x="0" y="0" width="35560" height="21590"/>
  </clipPath>
  <clipPath id="presentation_clip_path_shrink" clipPathUnits="userSpaceOnUse">
   <rect x="35" y="21" width="35489" height="21547"/>
  </clipPath>
 </defs>
 <defs class="TextShapeIndex">
  <g ooo:slide="id1" ooo:id-list="id3 id4 id5 id6 id7 id8 id9 id10 id11 id12 id13 id14 id15 id16 id17"/>
 </defs>
 <defs class="EmbeddedBulletChars">
  <g id="bullet-char-template-57356" transform="scale(0.00048828125,-0.00048828125)">
   <path d="M 580,1141 L 1163,571 580,0 -4,571 580,1141 Z"/>
  </g>
  <g id="bullet-char-template-57354" transform="scale(0.00048828125,-0.00048828125)">
   <path d="M 8,1128 L 1137,1128 1137,0 8,0 8,1128 Z"/>
  </g>
  <g id="bullet-char-template-10146" transform="scale(0.00048828125,-0.00048828125)">
   <path d="M 174,0 L 602,739 174,1481 1456,739 174,0 Z M 1358,739 L 309,1346 659,739 1358,739 Z"/>
  </g>
  <g id="bullet-char-template-10132" transform="scale(0.00048828125,-0.00048828125)">
   <path d="M 2015,739 L 1276,0 717,0 1260,543 174,543 174,936 1260,936 717,1481 1274,1481 2015,739 Z"/>
  </g>
  <g id="bullet-char-template-10007" transform="scale(0.00048828125,-0.00048828125)">
   <path d="M 0,-2 C -7,14 -16,27 -25,37 L 356,567 C 262,823 215,952 215,954 215,979 228,992 255,992 264,992 276,990 289,987 310,991 331,999 354,1012 L 381,999 492,748 772,1049 836,1024 860,1049 C 881,1039 901,1025 922,1006 886,937 835,863 770,784 769,783 710,716 594,584 L 774,223 C 774,196 753,168 711,139 L 727,119 C 717,90 699,76 672,76 641,76 570,178 457,381 L 164,-76 C 142,-110 111,-127 72,-127 30,-127 9,-110 8,-76 1,-67 -2,-52 -2,-32 -2,-23 -1,-13 0,-2 Z"/>
  </g>
  <g id="bullet-char-template-10004" transform="scale(0.00048828125,-0.00048828125)">
   <path d="M 285,-33 C 182,-33 111,30 74,156 52,228 41,333 41,471 41,549 55,616 82,672 116,743 169,778 240,778 293,778 328,747 346,684 L 369,508 C 377,444 397,411 428,410 L 1163,1116 C 1174,1127 1196,1133 1229,1133 1271,1133 1292,1118 1292,1087 L 1292,965 C 1292,929 1282,901 1262,881 L 442,47 C 390,-6 338,-33 285,-33 Z"/>
  </g>
  <g id="bullet-char-template-9679" transform="scale(0.00048828125,-0.00048828125)">
   <path d="M 813,0 C 632,0 489,54 383,161 276,268 223,411 223,592 223,773 276,916 383,1023 489,1130 632,1184 813,1184 992,1184 1136,1130 1245,1023 1353,916 1407,772 1407,592 1407,412 1353,268 1245,161 1136,54 992,0 813,0 Z"/>
  </g>
  <g id="bullet-char-template-8226" transform="scale(0.00048828125,-0.00048828125)">
   <path d="M 346,457 C 273,457 209,483 155,535 101,586 74,649 74,723 74,796 101,859 155,911 209,963 273,989 346,989 419,989 480,963 531,910 582,859 608,796 608,723 608,648 583,586 532,535 482,483 420,457 346,457 Z"/>
  </g>
  <g id="bullet-char-template-8211" transform="scale(0.00048828125,-0.00048828125)">
   <path d="M -4,459 L 1135,459 1135,606 -4,606 -4,459 Z"/>
  </g>
  <g id="bullet-char-template-61548" transform="scale(0.00048828125,-0.00048828125)">
   <path d="M 173,740 C 173,903 231,1043 346,1159 462,1274 601,1332 765,1332 928,1332 1067,1274 1183,1159 1299,1043 1357,903 1357,740 1357,577 1299,437 1183,322 1067,206 928,148 765,148 601,148 462,206 346,322 231,437 173,577 173,740 Z"/>
  </g>
 </defs>
 <g>
  <g id="id2" class="Master_Slide">
   <g id="bg-id2" class="Background"/>
   <g id="bo-id2" class="BackgroundObjects"/>
  </g>
 </g>
 <g class="SlideGroup">
  <g>
   <g id="container-id1">
    <g id="id1" class="Slide" clip-path="url(#presentation_clip_path)">
     <g class="Page">
      <g class="Group">
       <g class="com.sun.star.drawing.ClosedBezierShape">
        <g id="id3">
         <rect class="BoundingBox" stroke="none" fill="none" x="9484" y="10189" width="14595" height="2889"/>
         <path fill="rgb(25,37,106)" stroke="none" d="M 9625,12901 L 10181,12901 10181,12012 10798,12012 C 11383,12012 11754,11698 11754,11173 11754,10643 11394,10330 10819,10330 L 9625,10330 9625,12901 Z M 9625,12901 L 9625,12901 Z M 10795,10805 C 11042,10805 11186,10939 11186,11180 11186,11430 11024,11550 10795,11550 L 10181,11550 10181,10805 10795,10805 Z M 10795,10805 L 10795,10805 Z M 12973,12936 C 13453,12936 13812,12697 13897,12337 L 13424,12216 C 13386,12408 13220,12517 12980,12517 12709,12517 12536,12376 12497,12040 L 13907,12040 C 13974,11268 13587,10834 12959,10834 12342,10834 11947,11251 11947,11892 11947,12556 12377,12936 12973,12936 Z M 12973,12936 L 12973,12936 Z M 12949,11247 C 13199,11247 13350,11406 13354,11681 L 12501,11681 C 12547,11391 12705,11247 12949,11247 Z M 12949,11247 L 12949,11247 Z M 14813,12936 C 15113,12936 15356,12813 15476,12602 L 15479,12640 C 15511,12831 15663,12926 15888,12926 15973,12926 16086,12915 16153,12880 L 16153,12499 16132,12499 C 16117,12503 16100,12506 16072,12506 16008,12506 15952,12482 15952,12362 L 15952,11487 C 15952,11081 15687,10834 15099,10834 14559,10834 14210,11081 14214,11501 L 14714,11557 C 14714,11342 14848,11240 15088,11240 15303,11240 15402,11317 15402,11458 15402,11571 15353,11635 15201,11663 L 14760,11737 C 14387,11800 14140,12001 14140,12358 14140,12707 14397,12936 14813,12936 Z M 14813,12936 L 14813,12936 Z M 14982,12542 C 14806,12542 14693,12457 14693,12309 14693,12202 14753,12104 14944,12068 L 15208,12019 C 15296,12001 15367,11984 15416,11959 L 15416,12234 C 15377,12429 15215,12542 14982,12542 Z M 14982,12542 L 14982,12542 Z M 16414,12901 L 16964,12901 16964,11709 C 17003,11487 17165,11356 17412,11356 17479,11356 17539,11363 17574,11377 L 17595,11377 17595,10869 C 17553,10855 17490,10844 17423,10844 17204,10844 17053,10957 16940,11201 L 16915,10869 16414,10869 16414,12901 Z M 16414,12901 L 16414,12901 Z M 18618,12936 C 19206,12936 19513,12679 19513,12288 19513,11864 19206,11744 18861,11670 18519,11599 18339,11564 18339,11399 18339,11282 18441,11198 18625,11198 18836,11198 18959,11303 18963,11504 L 19474,11434 C 19442,11074 19157,10834 18639,10834 18131,10834 17796,11078 17796,11469 17796,11822 18050,11963 18424,12051 18741,12121 18952,12139 18952,12337 18952,12489 18833,12566 18639,12566 18396,12566 18258,12425 18262,12206 L 17740,12273 C 17775,12683 18064,12936 18618,12936 Z M 18618,12936 L 18618,12936 Z M 20768,12936 C 21381,12936 21779,12517 21779,11885 21779,11254 21381,10834 20768,10834 20151,10834 19749,11254 19749,11889 19749,12517 20147,12936 20768,12936 Z M 20768,12936 L 20768,12936 Z M 20764,12492 C 20468,12492 20292,12273 20292,11885 20292,11501 20468,11279 20768,11279 21060,11279 21237,11497 21237,11885 21237,12269 21060,12492 20764,12492 Z M 20764,12492 L 20764,12492 Z M 22111,12901 L 22661,12901 22661,11702 C 22675,11462 22844,11314 23059,11314 23270,11314 23390,11423 23390,11621 L 23390,12901 23937,12901 23937,11532 C 23937,11078 23669,10834 23253,10834 22981,10834 22791,10929 22636,11145 L 22615,10869 22111,10869 22111,12901 Z"/>
         <path fill="none" stroke="rgb(236,236,237)" stroke-width="282" stroke-linejoin="miter" d="M 9625,12901 L 10181,12901 10181,12012 10798,12012 C 11383,12012 11754,11698 11754,11173 11754,10643 11394,10330 10819,10330 L 9625,10330 9625,12901 Z"/>
         <path fill="none" stroke="rgb(236,236,237)" stroke-width="282" stroke-linejoin="miter" d="M 10795,10805 C 11042,10805 11186,10939 11186,11180 11186,11430 11024,11550 10795,11550 L 10181,11550 10181,10805 10795,10805 Z"/>
         <path fill="none" stroke="rgb(236,236,237)" stroke-width="282" stroke-linejoin="miter" d="M 12973,12936 C 13453,12936 13812,12697 13897,12337 L 13424,12216 C 13386,12408 13220,12517 12980,12517 12709,12517 12536,12376 12497,12040 L 13907,12040 C 13974,11268 13587,10834 12959,10834 12342,10834 11947,11251 11947,11892 11947,12556 12377,12936 12973,12936 Z"/>
         <path fill="none" stroke="rgb(236,236,237)" stroke-width="282" stroke-linejoin="miter" d="M 12949,11247 C 13199,11247 13350,11406 13354,11681 L 12501,11681 C 12547,11391 12705,11247 12949,11247 Z"/>
         <path fill="none" stroke="rgb(236,236,237)" stroke-width="282" stroke-linejoin="miter" d="M 14813,12936 C 15113,12936 15356,12813 15476,12602 L 15479,12640 C 15511,12831 15663,12926 15888,12926 15973,12926 16086,12915 16153,12880 L 16153,12499 16132,12499 C 16117,12503 16100,12506 16072,12506 16008,12506 15952,12482 15952,12362 L 15952,11487 C 15952,11081 15687,10834 15099,10834 14559,10834 14210,11081 14214,11501 L 14714,11557 C 14714,11342 14848,11240 15088,11240 15303,11240 15402,11317 15402,11458 15402,11571 15353,11635 15201,11663 L 14760,11737 C 14387,11800 14140,12001 14140,12358 14140,12707 14397,12936 14813,12936 Z"/>
         <path fill="none" stroke="rgb(236,236,237)" stroke-width="282" stroke-linejoin="miter" d="M 14982,12542 C 14806,12542 14693,12457 14693,12309 14693,12202 14753,12104 14944,12068 L 15208,12019 C 15296,12001 15367,11984 15416,11959 L 15416,12234 C 15377,12429 15215,12542 14982,12542 Z"/>
         <path fill="none" stroke="rgb(236,236,237)" stroke-width="282" stroke-linejoin="miter" d="M 16414,12901 L 16964,12901 16964,11709 C 17003,11487 17165,11356 17412,11356 17479,11356 17539,11363 17574,11377 L 17595,11377 17595,10869 C 17553,10855 17490,10844 17423,10844 17204,10844 17053,10957 16940,11201 L 16915,10869 16414,10869 16414,12901 Z"/>
         <path fill="none" stroke="rgb(236,236,237)" stroke-width="282" stroke-linejoin="miter" d="M 18618,12936 C 19206,12936 19513,12679 19513,12288 19513,11864 19206,11744 18861,11670 18519,11599 18339,11564 18339,11399 18339,11282 18441,11198 18625,11198 18836,11198 18959,11303 18963,11504 L 19474,11434 C 19442,11074 19157,10834 18639,10834 18131,10834 17796,11078 17796,11469 17796,11822 18050,11963 18424,12051 18741,12121 18952,12139 18952,12337 18952,12489 18833,12566 18639,12566 18396,12566 18258,12425 18262,12206 L 17740,12273 C 17775,12683 18064,12936 18618,12936 Z"/>
         <path fill="none" stroke="rgb(236,236,237)" stroke-width="282" stroke-linejoin="miter" d="M 20768,12936 C 21381,12936 21779,12517 21779,11885 21779,11254 21381,10834 20768,10834 20151,10834 19749,11254 19749,11889 19749,12517 20147,12936 20768,12936 Z"/>
         <path fill="none" stroke="rgb(236,236,237)" stroke-width="282" stroke-linejoin="miter" d="M 20764,12492 C 20468,12492 20292,12273 20292,11885 20292,11501 20468,11279 20768,11279 21060,11279 21237,11497 21237,11885 21237,12269 21060,12492 20764,12492 Z"/>
         <path fill="none" stroke="rgb(236,236,237)" stroke-width="282" stroke-linejoin="miter" d="M 22111,12901 L 22661,12901 22661,11702 C 22675,11462 22844,11314 23059,11314 23270,11314 23390,11423 23390,11621 L 23390,12901 23937,12901 23937,11532 C 23937,11078 23669,10834 23253,10834 22981,10834 22791,10929 22636,11145 L 22615,10869 22111,10869 22111,12901 Z"/>
        </g>
       </g>
       <g class="com.sun.star.drawing.ClosedBezierShape">
        <g id="id4">
         <rect class="BoundingBox" stroke="none" fill="none" x="9554" y="10259" width="14455" height="2749"/>
         <path fill="rgb(25,37,106)" stroke="none" d="M 9625,12901 L 10181,12901 10181,12012 10798,12012 C 11383,12012 11754,11698 11754,11173 11754,10643 11394,10330 10819,10330 L 9625,10330 9625,12901 Z M 9625,12901 L 9625,12901 Z M 10795,10805 C 11042,10805 11186,10939 11186,11180 11186,11430 11024,11550 10795,11550 L 10181,11550 10181,10805 10795,10805 Z M 10795,10805 L 10795,10805 Z M 12973,12936 C 13453,12936 13812,12697 13897,12337 L 13424,12216 C 13386,12408 13220,12517 12980,12517 12709,12517 12536,12376 12497,12040 L 13907,12040 C 13974,11268 13587,10834 12959,10834 12342,10834 11947,11251 11947,11892 11947,12556 12377,12936 12973,12936 Z M 12973,12936 L 12973,12936 Z M 12949,11247 C 13199,11247 13350,11406 13354,11681 L 12501,11681 C 12547,11391 12705,11247 12949,11247 Z M 12949,11247 L 12949,11247 Z M 14813,12936 C 15113,12936 15356,12813 15476,12602 L 15479,12640 C 15511,12831 15663,12926 15888,12926 15973,12926 16086,12915 16153,12880 L 16153,12499 16132,12499 C 16117,12503 16100,12506 16072,12506 16008,12506 15952,12482 15952,12362 L 15952,11487 C 15952,11081 15687,10834 15099,10834 14559,10834 14210,11081 14214,11501 L 14714,11557 C 14714,11342 14848,11240 15088,11240 15303,11240 15402,11317 15402,11458 15402,11571 15353,11635 15201,11663 L 14760,11737 C 14387,11800 14140,12001 14140,12358 14140,12707 14397,12936 14813,12936 Z M 14813,12936 L 14813,12936 Z M 14982,12542 C 14806,12542 14693,12457 14693,12309 14693,12202 14753,12104 14944,12068 L 15208,12019 C 15296,12001 15367,11984 15416,11959 L 15416,12234 C 15377,12429 15215,12542 14982,12542 Z M 14982,12542 L 14982,12542 Z M 16414,12901 L 16964,12901 16964,11709 C 17003,11487 17165,11356 17412,11356 17479,11356 17539,11363 17574,11377 L 17595,11377 17595,10869 C 17553,10855 17490,10844 17423,10844 17204,10844 17053,10957 16940,11201 L 16915,10869 16414,10869 16414,12901 Z M 16414,12901 L 16414,12901 Z M 18618,12936 C 19206,12936 19513,12679 19513,12288 19513,11864 19206,11744 18861,11670 18519,11599 18339,11564 18339,11399 18339,11282 18441,11198 18625,11198 18836,11198 18959,11303 18963,11504 L 19474,11434 C 19442,11074 19157,10834 18639,10834 18131,10834 17796,11078 17796,11469 17796,11822 18050,11963 18424,12051 18741,12121 18952,12139 18952,12337 18952,12489 18833,12566 18639,12566 18396,12566 18258,12425 18262,12206 L 17740,12273 C 17775,12683 18064,12936 18618,12936 Z M 18618,12936 L 18618,12936 Z M 20768,12936 C 21381,12936 21779,12517 21779,11885 21779,11254 21381,10834 20768,10834 20151,10834 19749,11254 19749,11889 19749,12517 20147,12936 20768,12936 Z M 20768,12936 L 20768,12936 Z M 20764,12492 C 20468,12492 20292,12273 20292,11885 20292,11501 20468,11279 20768,11279 21060,11279 21237,11497 21237,11885 21237,12269 21060,12492 20764,12492 Z M 20764,12492 L 20764,12492 Z M 22111,12901 L 22661,12901 22661,11702 C 22675,11462 22844,11314 23059,11314 23270,11314 23390,11423 23390,11621 L 23390,12901 23937,12901 23937,11532 C 23937,11078 23669,10834 23253,10834 22981,10834 22791,10929 22636,11145 L 22615,10869 22111,10869 22111,12901 Z"/>
         <path fill="none" stroke="rgb(255,255,255)" stroke-width="141" stroke-linejoin="miter" d="M 9625,12901 L 10181,12901 10181,12012 10798,12012 C 11383,12012 11754,11698 11754,11173 11754,10643 11394,10330 10819,10330 L 9625,10330 9625,12901 Z"/>
         <path fill="none" stroke="rgb(255,255,255)" stroke-width="141" stroke-linejoin="miter" d="M 10795,10805 C 11042,10805 11186,10939 11186,11180 11186,11430 11024,11550 10795,11550 L 10181,11550 10181,10805 10795,10805 Z"/>
         <path fill="none" stroke="rgb(255,255,255)" stroke-width="141" stroke-linejoin="miter" d="M 12973,12936 C 13453,12936 13812,12697 13897,12337 L 13424,12216 C 13386,12408 13220,12517 12980,12517 12709,12517 12536,12376 12497,12040 L 13907,12040 C 13974,11268 13587,10834 12959,10834 12342,10834 11947,11251 11947,11892 11947,12556 12377,12936 12973,12936 Z"/>
         <path fill="none" stroke="rgb(255,255,255)" stroke-width="141" stroke-linejoin="miter" d="M 12949,11247 C 13199,11247 13350,11406 13354,11681 L 12501,11681 C 12547,11391 12705,11247 12949,11247 Z"/>
         <path fill="none" stroke="rgb(255,255,255)" stroke-width="141" stroke-linejoin="miter" d="M 14813,12936 C 15113,12936 15356,12813 15476,12602 L 15479,12640 C 15511,12831 15663,12926 15888,12926 15973,12926 16086,12915 16153,12880 L 16153,12499 16132,12499 C 16117,12503 16100,12506 16072,12506 16008,12506 15952,12482 15952,12362 L 15952,11487 C 15952,11081 15687,10834 15099,10834 14559,10834 14210,11081 14214,11501 L 14714,11557 C 14714,11342 14848,11240 15088,11240 15303,11240 15402,11317 15402,11458 15402,11571 15353,11635 15201,11663 L 14760,11737 C 14387,11800 14140,12001 14140,12358 14140,12707 14397,12936 14813,12936 Z"/>
         <path fill="none" stroke="rgb(255,255,255)" stroke-width="141" stroke-linejoin="miter" d="M 14982,12542 C 14806,12542 14693,12457 14693,12309 14693,12202 14753,12104 14944,12068 L 15208,12019 C 15296,12001 15367,11984 15416,11959 L 15416,12234 C 15377,12429 15215,12542 14982,12542 Z"/>
         <path fill="none" stroke="rgb(255,255,255)" stroke-width="141" stroke-linejoin="miter" d="M 16414,12901 L 16964,12901 16964,11709 C 17003,11487 17165,11356 17412,11356 17479,11356 17539,11363 17574,11377 L 17595,11377 17595,10869 C 17553,10855 17490,10844 17423,10844 17204,10844 17053,10957 16940,11201 L 16915,10869 16414,10869 16414,12901 Z"/>
         <path fill="none" stroke="rgb(255,255,255)" stroke-width="141" stroke-linejoin="miter" d="M 18618,12936 C 19206,12936 19513,12679 19513,12288 19513,11864 19206,11744 18861,11670 18519,11599 18339,11564 18339,11399 18339,11282 18441,11198 18625,11198 18836,11198 18959,11303 18963,11504 L 19474,11434 C 19442,11074 19157,10834 18639,10834 18131,10834 17796,11078 17796,11469 17796,11822 18050,11963 18424,12051 18741,12121 18952,12139 18952,12337 18952,12489 18833,12566 18639,12566 18396,12566 18258,12425 18262,12206 L 17740,12273 C 17775,12683 18064,12936 18618,12936 Z"/>
         <path fill="none" stroke="rgb(255,255,255)" stroke-width="141" stroke-linejoin="miter" d="M 20768,12936 C 21381,12936 21779,12517 21779,11885 21779,11254 21381,10834 20768,10834 20151,10834 19749,11254 19749,11889 19749,12517 20147,12936 20768,12936 Z"/>
         <path fill="none" stroke="rgb(255,255,255)" stroke-width="141" stroke-linejoin="miter" d="M 20764,12492 C 20468,12492 20292,12273 20292,11885 20292,11501 20468,11279 20768,11279 21060,11279 21237,11497 21237,11885 21237,12269 21060,12492 20764,12492 Z"/>
         <path fill="none" stroke="rgb(255,255,255)" stroke-width="141" stroke-linejoin="miter" d="M 22111,12901 L 22661,12901 22661,11702 C 22675,11462 22844,11314 23059,11314 23270,11314 23390,11423 23390,11621 L 23390,12901 23937,12901 23937,11532 C 23937,11078 23669,10834 23253,10834 22981,10834 22791,10929 22636,11145 L 22615,10869 22111,10869 22111,12901 Z"/>
        </g>
       </g>
      </g>
      <g class="Group">
       <g class="Group">
        <g class="Group">
         <g class="com.sun.star.drawing.ClosedBezierShape">
          <g id="id5">
           <rect class="BoundingBox" stroke="none" fill="none" x="21717" y="8640" width="2270" height="1798"/>
           <path fill="rgb(0,158,224)" stroke="none" d="M 21944,10258 C 21944,10258 22143,9720 22648,9338 23154,8955 23447,8806 23482,9073 23516,9341 23586,10046 23641,10206 23696,10365 23801,10334 23836,10313 23872,10292 23900,10229 23861,10043 23822,9856 23746,9404 23726,9273 23707,9141 23680,8956 23636,8853 23591,8749 23347,8682 23081,8838 22668,9082 21986,9618 21828,10083 21810,10140 21835,10291 21944,10258 Z"/>
           <path fill="none" stroke="rgb(236,236,237)" stroke-width="211" stroke-linejoin="miter" d="M 21944,10258 C 21944,10258 22143,9720 22648,9338 23154,8955 23447,8806 23482,9073 23516,9341 23586,10046 23641,10206 23696,10365 23801,10334 23836,10313 23872,10292 23900,10229 23861,10043 23822,9856 23746,9404 23726,9273 23707,9141 23680,8956 23636,8853 23591,8749 23347,8682 23081,8838 22668,9082 21986,9618 21828,10083 21810,10140 21835,10291 21944,10258 Z"/>
          </g>
         </g>
         <g class="com.sun.star.drawing.ClosedBezierShape">
          <g id="id6">
           <rect class="BoundingBox" stroke="none" fill="none" x="21580" y="7971" width="2048" height="2034"/>
           <path fill="rgb(227,0,22)" stroke="none" d="M 21764,9873 C 21764,9873 22005,9318 22642,8849 23278,8380 23456,8265 23493,8220 23530,8176 23556,8077 23393,8077 23231,8077 22795,8105 22539,8163 22284,8220 22203,8337 22398,8295 22593,8253 22879,8207 23020,8197 23162,8186 23210,8196 23088,8232 22967,8269 22349,8520 22076,8713 21802,8905 21782,8930 21788,8976 21793,9023 21816,9025 21846,9002 21877,8977 22324,8652 22683,8491 23040,8330 23269,8249 23181,8317 23108,8374 22630,8664 22308,8966 22148,9118 21768,9588 21697,9758 21672,9821 21687,9952 21764,9873 Z"/>
           <path fill="none" stroke="rgb(236,236,237)" stroke-width="211" stroke-linejoin="miter" d="M 21764,9873 C 21764,9873 22005,9318 22642,8849 23278,8380 23456,8265 23493,8220 23530,8176 23556,8077 23393,8077 23231,8077 22795,8105 22539,8163 22284,8220 22203,8337 22398,8295 22593,8253 22879,8207 23020,8197 23162,8186 23210,8196 23088,8232 22967,8269 22349,8520 22076,8713 21802,8905 21782,8930 21788,8976 21793,9023 21816,9025 21846,9002 21877,8977 22324,8652 22683,8491 23040,8330 23269,8249 23181,8317 23108,8374 22630,8664 22308,8966 22148,9118 21768,9588 21697,9758 21672,9821 21687,9952 21764,9873 Z"/>
          </g>
         </g>
         <g class="com.sun.star.drawing.ClosedBezierShape">
          <g id="id7">
           <rect class="BoundingBox" stroke="none" fill="none" x="22545" y="7502" width="1817" height="628"/>
           <path fill="rgb(16,42,131)" stroke="none" d="M 22695,7971 C 23135,7781 23874,7966 24105,7679 24207,7554 24286,7619 24244,7684 24202,7751 24150,7913 23793,7918 23437,7924 23086,7937 22912,7974 22821,7993 22748,8015 22703,8021 22633,8031 22638,7996 22695,7971 Z"/>
           <path fill="none" stroke="rgb(236,236,237)" stroke-width="211" stroke-linejoin="miter" d="M 22695,7971 C 23135,7781 23874,7966 24105,7679 24207,7554 24286,7619 24244,7684 24202,7751 24150,7913 23793,7918 23437,7924 23086,7937 22912,7974 22821,7993 22748,8015 22703,8021 22633,8031 22638,7996 22695,7971 Z"/>
          </g>
         </g>
         <g class="com.sun.star.drawing.ClosedBezierShape">
          <g id="id8">
           <rect class="BoundingBox" stroke="none" fill="none" x="24203" y="7364" width="1768" height="921"/>
           <path fill="rgb(240,124,0)" stroke="none" d="M 24364,7482 C 24447,7470 24632,7457 24713,7498 24821,7553 24800,7626 24721,7698 24643,7769 24664,7816 24789,7774 24915,7732 25248,7661 25382,7664 25515,7667 25508,7727 25416,7743 25324,7758 25115,7785 24962,7808 24810,7832 24737,7874 24904,7892 25072,7910 25652,8008 25775,8066 25898,8123 25887,8204 25780,8170 25672,8136 25379,8039 25006,7999 24635,7960 24606,7963 24535,7913 24465,7863 24467,7824 24546,7740 24624,7656 24713,7540 24554,7545 24394,7551 24353,7568 24321,7545 24287,7521 24334,7487 24364,7482 Z"/>
           <path fill="none" stroke="rgb(236,236,237)" stroke-width="211" stroke-linejoin="miter" d="M 24364,7482 C 24447,7470 24632,7457 24713,7498 24821,7553 24800,7626 24721,7698 24643,7769 24664,7816 24789,7774 24915,7732 25248,7661 25382,7664 25515,7667 25508,7727 25416,7743 25324,7758 25115,7785 24962,7808 24810,7832 24737,7874 24904,7892 25072,7910 25652,8008 25775,8066 25898,8123 25887,8204 25780,8170 25672,8136 25379,8039 25006,7999 24635,7960 24606,7963 24535,7913 24465,7863 24467,7824 24546,7740 24624,7656 24713,7540 24554,7545 24394,7551 24353,7568 24321,7545 24287,7521 24334,7487 24364,7482 Z"/>
          </g>
         </g>
         <g class="com.sun.star.drawing.ClosedBezierShape">
          <g id="id9">
           <rect class="BoundingBox" stroke="none" fill="none" x="23984" y="8002" width="2059" height="2267"/>
           <path fill="rgb(24,167,64)" stroke="none" d="M 25863,8428 C 25934,8443 25989,8355 25852,8315 25628,8249 25018,8110 24775,8108 24530,8106 24226,8121 24169,8456 24127,8698 24045,9878 24121,10088 24156,10185 24283,10201 24316,10043 24324,10007 24326,9962 24323,9907 24302,9502 24344,8610 24360,8461 24376,8312 24457,8320 24570,8396 24683,8472 25086,8841 25272,9021 25349,9097 25396,9158 25431,9202 25482,9264 25511,9303 25569,9289 25866,9221 24750,8363 24688,8325 24289,8077 25715,8397 25863,8428 Z"/>
           <path fill="none" stroke="rgb(236,236,237)" stroke-width="211" stroke-linejoin="miter" d="M 25863,8428 C 25934,8443 25989,8355 25852,8315 25628,8249 25018,8110 24775,8108 24530,8106 24226,8121 24169,8456 24127,8698 24045,9878 24121,10088 24156,10185 24283,10201 24316,10043 24324,10007 24326,9962 24323,9907 24302,9502 24344,8610 24360,8461 24376,8312 24457,8320 24570,8396 24683,8472 25086,8841 25272,9021 25349,9097 25396,9158 25431,9202 25482,9264 25511,9303 25569,9289 25866,9221 24750,8363 24688,8325 24289,8077 25715,8397 25863,8428 Z"/>
          </g>
         </g>
        </g>
        <g class="Group">
         <g class="com.sun.star.drawing.ClosedBezierShape">
          <g id="id10">
           <rect class="BoundingBox" stroke="none" fill="none" x="21770" y="8693" width="2164" height="1692"/>
           <path fill="rgb(0,158,224)" stroke="none" d="M 21944,10258 C 21944,10258 22143,9720 22648,9338 23154,8955 23447,8806 23482,9073 23516,9341 23586,10046 23641,10206 23696,10365 23801,10334 23836,10313 23872,10292 23900,10229 23861,10043 23822,9856 23746,9404 23726,9273 23707,9141 23680,8956 23636,8853 23591,8749 23347,8682 23081,8838 22668,9082 21986,9618 21828,10083 21810,10140 21835,10291 21944,10258 Z"/>
           <path fill="none" stroke="rgb(255,255,255)" stroke-width="105" stroke-linejoin="miter" d="M 21944,10258 C 21944,10258 22143,9720 22648,9338 23154,8955 23447,8806 23482,9073 23516,9341 23586,10046 23641,10206 23696,10365 23801,10334 23836,10313 23872,10292 23900,10229 23861,10043 23822,9856 23746,9404 23726,9273 23707,9141 23680,8956 23636,8853 23591,8749 23347,8682 23081,8838 22668,9082 21986,9618 21828,10083 21810,10140 21835,10291 21944,10258 Z"/>
          </g>
         </g>
         <g class="com.sun.star.drawing.ClosedBezierShape">
          <g id="id11">
           <rect class="BoundingBox" stroke="none" fill="none" x="21633" y="8024" width="1942" height="1928"/>
           <path fill="rgb(227,0,22)" stroke="none" d="M 21764,9873 C 21764,9873 22005,9318 22642,8849 23278,8380 23456,8265 23493,8220 23530,8176 23556,8077 23393,8077 23231,8077 22795,8105 22539,8163 22284,8220 22203,8337 22398,8295 22593,8253 22879,8207 23020,8197 23162,8186 23210,8196 23088,8232 22967,8269 22349,8520 22076,8713 21802,8905 21782,8930 21788,8976 21793,9023 21816,9025 21846,9002 21877,8977 22324,8652 22683,8491 23040,8330 23269,8249 23181,8317 23108,8374 22630,8664 22308,8966 22148,9118 21768,9588 21697,9758 21672,9821 21687,9952 21764,9873 Z"/>
           <path fill="none" stroke="rgb(255,255,255)" stroke-width="105" stroke-linejoin="miter" d="M 21764,9873 C 21764,9873 22005,9318 22642,8849 23278,8380 23456,8265 23493,8220 23530,8176 23556,8077 23393,8077 23231,8077 22795,8105 22539,8163 22284,8220 22203,8337 22398,8295 22593,8253 22879,8207 23020,8197 23162,8186 23210,8196 23088,8232 22967,8269 22349,8520 22076,8713 21802,8905 21782,8930 21788,8976 21793,9023 21816,9025 21846,9002 21877,8977 22324,8652 22683,8491 23040,8330 23269,8249 23181,8317 23108,8374 22630,8664 22308,8966 22148,9118 21768,9588 21697,9758 21672,9821 21687,9952 21764,9873 Z"/>
          </g>
         </g>
         <g class="com.sun.star.drawing.ClosedBezierShape">
          <g id="id12">
           <rect class="BoundingBox" stroke="none" fill="none" x="22598" y="7555" width="1711" height="522"/>
           <path fill="rgb(16,42,131)" stroke="none" d="M 22695,7971 C 23135,7781 23874,7966 24105,7679 24207,7554 24286,7619 24244,7684 24202,7751 24150,7913 23793,7918 23437,7924 23086,7937 22912,7974 22821,7993 22748,8015 22703,8021 22633,8031 22638,7996 22695,7971 Z"/>
           <path fill="none" stroke="rgb(255,255,255)" stroke-width="105" stroke-linejoin="miter" d="M 22695,7971 C 23135,7781 23874,7966 24105,7679 24207,7554 24286,7619 24244,7684 24202,7751 24150,7913 23793,7918 23437,7924 23086,7937 22912,7974 22821,7993 22748,8015 22703,8021 22633,8031 22638,7996 22695,7971 Z"/>
          </g>
         </g>
         <g class="com.sun.star.drawing.ClosedBezierShape">
          <g id="id13">
           <rect class="BoundingBox" stroke="none" fill="none" x="24256" y="7417" width="1662" height="815"/>
           <path fill="rgb(240,124,0)" stroke="none" d="M 24364,7482 C 24447,7470 24632,7457 24713,7498 24821,7553 24800,7626 24721,7698 24643,7769 24664,7816 24789,7774 24915,7732 25248,7661 25382,7664 25515,7667 25508,7727 25416,7743 25324,7758 25115,7785 24962,7808 24810,7832 24737,7874 24904,7892 25072,7910 25652,8008 25775,8066 25898,8123 25887,8204 25780,8170 25672,8136 25379,8039 25006,7999 24635,7960 24606,7963 24535,7913 24465,7863 24467,7824 24546,7740 24624,7656 24713,7540 24554,7545 24394,7551 24353,7568 24321,7545 24287,7521 24334,7487 24364,7482 Z"/>
           <path fill="none" stroke="rgb(255,255,255)" stroke-width="105" stroke-linejoin="miter" d="M 24364,7482 C 24447,7470 24632,7457 24713,7498 24821,7553 24800,7626 24721,7698 24643,7769 24664,7816 24789,7774 24915,7732 25248,7661 25382,7664 25515,7667 25508,7727 25416,7743 25324,7758 25115,7785 24962,7808 24810,7832 24737,7874 24904,7892 25072,7910 25652,8008 25775,8066 25898,8123 25887,8204 25780,8170 25672,8136 25379,8039 25006,7999 24635,7960 24606,7963 24535,7913 24465,7863 24467,7824 24546,7740 24624,7656 24713,7540 24554,7545 24394,7551 24353,7568 24321,7545 24287,7521 24334,7487 24364,7482 Z"/>
          </g>
         </g>
         <g class="com.sun.star.drawing.ClosedBezierShape">
          <g id="id14">
           <rect class="BoundingBox" stroke="none" fill="none" x="24037" y="8055" width="1953" height="2161"/>
           <path fill="rgb(24,167,64)" stroke="none" d="M 25863,8428 C 25934,8443 25989,8355 25852,8315 25628,8249 25018,8110 24775,8108 24530,8106 24226,8121 24169,8456 24127,8698 24045,9878 24121,10088 24156,10185 24283,10201 24316,10043 24324,10007 24326,9962 24323,9907 24302,9502 24344,8610 24360,8461 24376,8312 24457,8320 24570,8396 24683,8472 25086,8841 25272,9021 25349,9097 25396,9158 25431,9202 25482,9264 25511,9303 25569,9289 25866,9221 24750,8363 24688,8325 24289,8077 25715,8397 25863,8428 Z"/>
           <path fill="none" stroke="rgb(255,255,255)" stroke-width="105" stroke-linejoin="miter" d="M 25863,8428 C 25934,8443 25989,8355 25852,8315 25628,8249 25018,8110 24775,8108 24530,8106 24226,8121 24169,8456 24127,8698 24045,9878 24121,10088 24156,10185 24283,10201 24316,10043 24324,10007 24326,9962 24323,9907 24302,9502 24344,8610 24360,8461 24376,8312 24457,8320 24570,8396 24683,8472 25086,8841 25272,9021 25349,9097 25396,9158 25431,9202 25482,9264 25511,9303 25569,9289 25866,9221 24750,8363 24688,8325 24289,8077 25715,8397 25863,8428 Z"/>
          </g>
         </g>
        </g>
       </g>
       <g class="com.sun.star.drawing.ClosedBezierShape">
        <g id="id15">
         <rect class="BoundingBox" stroke="none" fill="none" x="23619" y="8126" width="408" height="396"/>
         <path fill="none" stroke="rgb(255,255,255)" stroke-width="20" stroke-linejoin="miter" d="M 23633,8477 L 23705,8507 23753,8390 23835,8425 C 23911,8456 23977,8436 24005,8366 24034,8297 24004,8237 23929,8204 L 23772,8140 23633,8477 Z"/>
         <path fill="none" stroke="rgb(255,255,255)" stroke-width="20" stroke-linejoin="miter" d="M 23900,8266 C 23932,8280 23944,8305 23931,8336 23917,8369 23889,8376 23860,8363 L 23779,8330 23819,8233 23900,8266 Z"/>
        </g>
       </g>
      </g>
      <g class="com.sun.star.drawing.ClosedBezierShape">
       <g id="id16">
        <rect class="BoundingBox" stroke="none" fill="none" x="14117" y="13509" width="9822" height="613"/>
        <path fill="rgb(27,25,24)" stroke="none" d="M 14118,14111 L 14118,13518 14341,13518 C 14380,13518 14410,13520 14431,13524 14460,13529 14484,13538 14504,13552 14523,13565 14539,13584 14551,13608 14563,13633 14569,13660 14569,13690 14569,13740 14553,13783 14521,13817 14489,13852 14431,13869 14347,13869 L 14196,13869 14196,14111 14118,14111 Z M 14118,14111 L 14118,14111 Z M 14196,13800 L 14349,13800 C 14399,13800 14435,13791 14456,13772 14477,13753 14488,13727 14488,13692 14488,13668 14482,13645 14469,13628 14457,13610 14440,13599 14420,13593 14407,13590 14382,13588 14347,13588 L 14196,13588 14196,13800 Z M 14196,13800 L 14196,13800 Z M 14848,14111 L 14848,13518 14927,13518 14927,13763 15232,13763 15232,13518 15310,13518 15310,14111 15232,14111 15232,13832 14927,13832 14927,14111 14848,14111 Z M 14848,14111 L 14848,14111 Z M 15553,14111 L 15780,13518 15866,13518 16106,14111 16017,14111 15949,13931 15700,13931 15636,14111 15553,14111 Z M 15553,14111 L 15553,14111 Z M 15723,13868 L 15924,13868 15863,13704 C 15844,13653 15830,13612 15820,13579 15812,13618 15801,13656 15788,13694 L 15723,13868 Z M 15723,13868 L 15723,13868 Z M 16347,14111 L 16347,13518 16610,13518 C 16662,13518 16702,13524 16730,13534 16757,13545 16779,13564 16795,13590 16812,13617 16820,13647 16820,13680 16820,13722 16806,13758 16779,13786 16752,13815 16710,13833 16654,13841 16674,13851 16690,13861 16701,13871 16724,13892 16745,13918 16765,13949 L 16868,14111 16770,14111 16692,13988 C 16669,13952 16650,13925 16636,13906 16621,13887 16608,13874 16596,13866 16584,13859 16571,13854 16559,13851 16550,13849 16536,13848 16516,13848 L 16425,13848 16425,14111 16347,14111 Z M 16347,14111 L 16347,14111 Z M 16425,13780 L 16594,13780 C 16630,13780 16658,13776 16678,13769 16698,13762 16713,13750 16723,13734 16734,13717 16739,13700 16739,13681 16739,13652 16729,13629 16709,13611 16689,13593 16657,13584 16613,13584 L 16425,13584 16425,13780 Z M 16425,13780 L 16425,13780 Z M 17117,14111 L 17117,13518 17235,13518 17374,13938 C 17387,13978 17397,14007 17403,14026 17409,14005 17420,13973 17434,13930 L 17576,13518 17681,13518 17681,14111 17606,14111 17606,13615 17434,14111 17363,14111 17193,13606 17193,14111 17117,14111 Z M 17117,14111 L 17117,14111 Z M 17919,14111 L 18145,13518 18231,13518 18472,14111 18383,14111 18315,13931 18066,13931 18002,14111 17919,14111 Z M 17919,14111 L 17919,14111 Z M 18089,13868 L 18290,13868 18228,13704 C 18210,13653 18196,13612 18186,13579 18178,13618 18167,13656 18153,13694 L 18089,13868 Z M 18089,13868 L 18089,13868 Z M 19132,13903 L 19210,13923 C 19194,13988 19164,14037 19122,14071 19079,14104 19027,14121 18966,14121 18902,14121 18851,14108 18811,14082 18771,14056 18741,14019 18720,13970 18699,13919 18689,13867 18689,13810 18689,13749 18700,13695 18724,13649 18747,13603 18781,13568 18824,13544 18867,13520 18915,13509 18967,13509 19026,13509 19076,13523 19116,13554 19156,13584 19184,13626 19200,13681 L 19123,13700 C 19110,13656 19090,13624 19064,13605 19038,13585 19005,13575 18966,13575 18920,13575 18883,13586 18852,13608 18822,13630 18800,13659 18788,13697 18776,13733 18769,13771 18769,13810 18769,13860 18777,13904 18791,13942 18806,13980 18829,14008 18859,14027 18890,14045 18924,14054 18959,14054 19003,14054 19040,14042 19070,14017 19101,13991 19121,13953 19132,13903 Z M 19132,13903 L 19132,13903 Z M 19485,14111 L 19485,13518 19912,13518 19912,13588 19564,13588 19564,13770 19890,13770 19890,13840 19564,13840 19564,14042 19926,14042 19926,14111 19485,14111 Z M 19485,14111 L 19485,14111 Z M 20598,13518 L 20677,13518 20677,13861 C 20677,13920 20670,13967 20657,14003 20643,14038 20619,14066 20584,14088 20549,14110 20503,14121 20446,14121 20391,14121 20346,14112 20311,14093 20275,14073 20250,14046 20235,14010 20220,13974 20213,13923 20213,13861 L 20213,13518 20291,13518 20291,13861 C 20291,13912 20296,13950 20306,13975 20315,13999 20331,14018 20354,14031 20378,14044 20406,14051 20439,14051 20497,14051 20537,14038 20562,14012 20586,13986 20598,13935 20598,13861 L 20598,13518 Z M 20598,13518 L 20598,13518 Z M 21134,14111 L 21134,13588 20940,13588 20940,13518 21407,13518 21407,13588 21213,13588 21213,14111 21134,14111 Z M 21134,14111 L 21134,14111 Z M 21679,14111 L 21679,13518 21758,13518 21758,14111 21679,14111 Z M 21679,14111 L 21679,14111 Z M 22493,13903 L 22572,13923 C 22555,13988 22526,14037 22483,14071 22441,14104 22389,14121 22327,14121 22264,14121 22212,14108 22172,14082 22132,14056 22102,14019 22081,13970 22061,13919 22050,13867 22050,13810 22050,13749 22062,13695 22085,13649 22109,13603 22142,13568 22186,13544 22229,13520 22277,13509 22329,13509 22388,13509 22437,13523 22478,13554 22518,13584 22546,13626 22562,13681 L 22485,13700 C 22471,13656 22451,13624 22425,13605 22399,13585 22367,13575 22327,13575 22282,13575 22244,13586 22214,13608 22183,13630 22162,13659 22150,13697 22137,13733 22131,13771 22131,13810 22131,13860 22138,13904 22153,13942 22167,13980 22190,14008 22221,14027 22252,14045 22285,14054 22321,14054 22365,14054 22401,14042 22432,14017 22462,13991 22483,13953 22493,13903 Z M 22493,13903 L 22493,13903 Z M 22780,14111 L 23007,13518 23093,13518 23334,14111 23245,14111 23176,13931 22928,13931 22863,14111 22780,14111 Z M 22780,14111 L 22780,14111 Z M 22950,13868 L 23152,13868 23090,13704 C 23072,13653 23058,13612 23048,13579 23040,13618 23029,13656 23015,13694 L 22950,13868 Z M 22950,13868 L 22950,13868 Z M 23569,14111 L 23569,13518 23648,13518 23648,14042 23938,14042 23938,14111 23569,14111 Z"/>
       </g>
      </g>
      <g class="com.sun.star.drawing.ClosedBezierShape">
       <g id="id17">
        <rect class="BoundingBox" stroke="none" fill="none" x="19903" y="9674" width="1141" height="608"/>
        <path fill="rgb(27,25,24)" stroke="none" d="M 20102,10281 L 20102,9745 19903,9745 19903,9674 20383,9674 20383,9745 20183,9745 20183,10281 20102,10281 Z M 20102,10281 L 20102,10281 Z M 20464,10281 L 20464,9674 20585,9674 20728,10104 C 20742,10144 20751,10173 20757,10193 20764,10171 20775,10139 20790,10096 L 20936,9674 21043,9674 21043,10281 20966,10281 20966,9773 20789,10281 20717,10281 20542,9763 20542,10281 20464,10281 Z"/>
       </g>
      </g>
     </g>
    </g>
   </g>
  </g>
 </g>
</svg>